<?xml version="1.0" encoding="UTF-8" standalone="no"?>
<svg
   xmlns:dc="http://purl.org/dc/elements/1.1/"
   xmlns:cc="http://creativecommons.org/ns#"
   xmlns:rdf="http://www.w3.org/1999/02/22-rdf-syntax-ns#"
   xmlns:svg="http://www.w3.org/2000/svg"
   xmlns="http://www.w3.org/2000/svg"
   xmlns:sodipodi="http://sodipodi.sourceforge.net/DTD/sodipodi-0.dtd"
   xmlns:inkscape="http://www.inkscape.org/namespaces/inkscape"
   version="1.1"
   id="svg46"
   width="45"
   height="45"
   viewBox="0 0 17.04142 17.04142"
   sodipodi:docname="SplitPiece.svg"
   inkscape:version="1.0.2 (e86c8708, 2021-01-15)">
  <metadata
     id="metadata52">
    <rdf:RDF>
      <cc:Work
         rdf:about="">
        <dc:format>image/svg+xml</dc:format>
        <dc:type
           rdf:resource="http://purl.org/dc/dcmitype/StillImage" />
        <dc:title></dc:title>
      </cc:Work>
    </rdf:RDF>
  </metadata>
  <defs
     id="defs50" />
  <sodipodi:namedview
     pagecolor="#ffffff"
     bordercolor="#666666"
     borderopacity="1"
     objecttolerance="10"
     gridtolerance="10"
     guidetolerance="10"
     inkscape:pageopacity="0"
     inkscape:pageshadow="2"
     inkscape:window-width="1183"
     inkscape:window-height="810"
     id="namedview48"
     showgrid="false"
     inkscape:zoom="9.6100362"
     inkscape:cx="-11.450673"
     inkscape:cy="-4.7851096"
     inkscape:window-x="0"
     inkscape:window-y="23"
     inkscape:window-maximized="0"
     inkscape:current-layer="g54" />
  <g
     inkscape:groupmode="layer"
     inkscape:label="Image"
     id="g54">
    <path
       style="fill:#000000;stroke-width:0.0946746"
       d="m 6.8126455,15.01709 c -0.759053,-0.176783 -1.209733,-0.335586 -1.822485,-0.642172 l -0.544379,-0.272376 -7.29e-4,-1.34775 -7.29e-4,-1.34775 -0.371777,-0.212281 C 3.4114355,10.817273 2.5797785,9.96502 2.2725345,9.3501709 1.1797086,7.1632328 3.4558095,5.0247862 5.9735775,5.8729607 c 0.316292,0.1065511 0.671689,0.2570323 0.789771,0.3344025 0.212698,0.1393653 0.215086,0.1359556 0.256773,-0.3667337 0.05051,-0.6090593 0.444479,-1.2545324 0.9028,-1.4791268 C 8.2088525,4.221386 8.2286018,4.1798728 8.2306139,3.7147342 l 0.00215,-0.4970414 H 7.8656585 c -0.210818,0 -0.417283,-0.060459 -0.484966,-0.1420118 -0.184108,-0.2218375 0.04833,-0.4260356 0.484966,-0.4260356 0.3413072,0 0.3671053,-0.019145 0.3671053,-0.2724313 0,-0.1498372 0.063905,-0.325468 0.1420119,-0.3902906 0.2013993,-0.1671466 0.4260355,0.038642 0.4260355,0.3902906 0,0.2532863 0.025798,0.2724313 0.3671058,0.2724313 0.2108179,0 0.4172823,0.060459 0.4849652,0.1420118 C 9.8369914,3.0134947 9.6045482,3.2176928 9.167917,3.2176928 H 8.8008112 l 0.00215,0.4970414 c 0.00201,0.4651386 0.021761,0.5066518 0.3076923,0.6467685 0.4535888,0.2222751 0.8523339,0.8705591 0.9017125,1.4660156 l 0.04099,0.4942959 0.620915,-0.2905613 c 1.612807,-0.7547235 3.423221,-0.2367699 4.130017,1.1815845 0.525204,1.0539465 0.200478,2.2217005 -0.901512,3.2419496 -0.313485,0.290232 -0.737272,0.62322 -0.94175,0.739974 l -0.371776,0.212281 -7.57e-4,1.34775 -7.58e-4,1.34775 -0.544379,0.274518 c -1.097988,0.553693 -1.744392,0.697246 -3.2899398,0.73063 -0.9259705,0.02 -1.6013055,-0.01153 -1.9408285,-0.0906 z m 1.704142,-1.006497 v -0.662722 h 0.2771731 c 0.596337,0 1.7912024,0.214576 2.4465514,0.439357 0.759188,0.260396 1.092118,0.26281 1.140638,0.0083 0.06262,-0.328528 -1.641164,-0.87272 -3.0781927,-0.983179 l -0.7861698,-0.06043 v -0.37779 -0.377789 l 0.7337278,0.06518 c 0.9583407,0.08514 1.7637947,0.274196 2.4374967,0.572138 0.299554,0.132478 0.581946,0.240868 0.627538,0.240868 0.04559,0 0.08289,-0.130206 0.08289,-0.289348 0,-0.251592 -0.0552,-0.313765 -0.423051,-0.476482 -0.64774,-0.286528 -1.80071,-0.554788 -2.6724359,-0.621794 l -0.7861658,-0.06043 v -0.377791 -0.377789 l 0.7337278,0.06518 c 0.9608089,0.08536 1.7640849,0.274324 2.4436559,0.574862 l 0.550803,0.243592 0.195078,-0.223171 c 0.107293,-0.122744 0.383928,-0.342745 0.614746,-0.488889 0.5774,-0.365589 1.273975,-1.0810508 1.517765,-1.5589211 C 14.835294,8.7685267 14.915139,8.0775078 14.765999,7.6094246 14.7015,7.4069898 14.473972,7.059889 14.260382,6.8380892 12.935105,5.4618733 10.457414,5.98672 8.8842614,7.9769071 L 8.5167875,8.4417964 v 1.1136265 1.1136261 l -0.781065,0.06039 c -0.807664,0.06245 -1.973324,0.342698 -2.449384,0.588878 -0.223269,0.115457 -0.27251,0.202187 -0.27251,0.47998 0,0.286522 0.02567,0.328189 0.165681,0.268907 0.463808,-0.196389 1.869514,-0.509243 2.557923,-0.569295 l 0.779355,-0.06798 v 0.282281 0.282283 l -0.781065,0.06039 c -0.807664,0.06245 -1.973324,0.342698 -2.449384,0.588878 -0.223269,0.115457 -0.27251,0.202186 -0.27251,0.479979 0,0.286522 0.02567,0.328189 0.165681,0.268906 0.463808,-0.196388 1.869514,-0.509242 2.557923,-0.569293 l 0.779355,-0.06798 v 0.282282 0.282282 l -0.781065,0.06039 c -0.753646,0.05828 -2.121556,0.375039 -2.276584,0.527183 -0.07097,0.06965 0.309742,0.237921 1.072451,0.473992 0.272403,0.08431 0.919459,0.181198 1.8668548,0.279526 0.084574,0.0088 0.1183432,-0.176826 0.1183432,-0.650439 z m 2.7565745,-3.466788 c -0.384475,-0.12605 -1.098085,-0.279581 -1.5857987,-0.341181 l -0.8867521,-0.112 V 9.6586109 c 0,-0.8902376 0.9297098,-2.0225214 2.1598948,-2.6305118 0.624258,-0.308525 0.80491,-0.354785 1.385491,-0.354785 0.555397,0 0.740973,0.043116 1.103906,0.2564749 1.040757,0.611837 1.091521,1.6509811 0.13251,2.7124919 -0.326936,0.3618791 -1.413651,1.1611771 -1.549987,1.1400411 -0.03312,-0.0051 -0.374789,-0.112466 -0.759264,-0.238517 z m -6.0891515,0.211547 c 0.345978,-0.177257 1.729981,-0.505286 2.456837,-0.582308 l 0.5917163,-0.0627 V 9.4465009 c 0,-0.5623027 -0.045361,-0.7489473 -0.2965583,-1.2202421 -0.733747,-1.3766512 -2.310987,-2.2035556 -3.704446,-1.9421411 -0.493838,0.092644 -1.179881,0.5947696 -1.455729,1.0654695 -0.574679,0.9806144 -0.143025,2.0887857 1.209712,3.1056558 0.612797,0.460648 0.795717,0.506453 1.198468,0.300109 z m 3.332577,-4.3660616 c 0,-1.3549724 -0.024085,-1.6568047 -0.1322043,-1.6568047 -0.1805743,0 -0.7031677,0.6105599 -0.7780857,0.9090592 -0.09808,0.3907646 0.03784,1.1975457 0.245373,1.4564623 0.104933,0.1309158 0.2868149,0.397464 0.4041831,0.5923292 0.1173681,0.1948652 0.2240475,0.3546285 0.2370653,0.3550296 0.013018,4.01e-4 0.023669,-0.744833 0.023669,-1.6560756 z"
       id="path2036" />
  </g>
</svg>
