<?xml version="1.0" encoding="iso-8859-1"?>
<!-- Generator: Adobe Illustrator 19.0.0, SVG Export Plug-In . SVG Version: 6.00 Build 0)  -->
<svg version="1.1" id="Layer_1" xmlns="http://www.w3.org/2000/svg" xmlns:xlink="http://www.w3.org/1999/xlink" x="0px" y="0px"
	 viewBox="0 0 512 512" style="enable-background:new 0 0 512 512;" xml:space="preserve">
<g>
	<path style="fill:#FFC61B;" d="M305.795,235.798h-99.591c-19.801,0-35.91-16.109-35.91-35.91s16.109-35.91,35.91-35.91h99.591
		c19.801,0,35.91,16.109,35.91,35.91S325.596,235.798,305.795,235.798z M206.204,192.705c-3.893,0-7.182,3.289-7.182,7.182
		c0,3.893,3.289,7.182,7.182,7.182h99.591c3.893,0,7.182-3.289,7.182-7.182c0-3.893-3.289-7.182-7.182-7.182H206.204z"/>
	<path style="fill:#FFC61B;" d="M136.691,490.455c-3.35,0-6.692-1.168-9.381-3.486c-5.207-4.489-6.501-12.037-3.091-18.005
		c38.278-66.979,62.708-150.745,72.612-248.971c0.74-7.337,6.916-12.923,14.292-12.923h89.766c7.375,0,13.553,5.586,14.292,12.923
		c3.857,38.256,10.025,74.843,18.333,108.744c1.889,7.705-2.827,15.482-10.532,17.371c-7.708,1.886-15.482-2.827-17.371-10.533
		c-7.683-31.35-13.597-64.854-17.619-99.776h-63.971c-8.157,70.973-23.875,134.647-46.906,190.196l79.932-62.915
		c6.234-4.905,15.265-3.829,20.172,2.405s3.831,15.265-2.403,20.172L145.576,487.378
		C142.963,489.434,139.824,490.455,136.691,490.455z"/>
</g>
<path style="fill:#FEE187;" d="M224.712,178.341h62.592c31.447-12.459,53.675-43.115,53.675-78.999
	c0-46.954-38.012-84.98-84.978-84.98c-46.925,0-84.978,38.025-84.978,84.98C171.02,135.226,193.272,165.88,224.712,178.341z"/>
<path style="fill:#FFC61B;" d="M287.304,192.705h-62.592c-1.813,0-3.608-0.342-5.293-1.01
	c-38.127-15.113-62.763-51.362-62.763-92.353C156.656,44.565,201.221,0,256,0s99.344,44.565,99.344,99.342
	c0,40.998-24.63,77.249-62.748,92.353C290.911,192.363,289.115,192.705,287.304,192.705z M227.583,163.977h56.85
	c25.713-11.28,42.182-36.369,42.182-64.634c0-38.937-31.677-70.614-70.616-70.614s-70.616,31.677-70.616,70.614
	C185.384,127.601,201.86,152.691,227.583,163.977z"/>
<path style="fill:#FEE187;" d="M369.628,497.637H142.371c-14.761,0-26.837-12.077-26.837-26.837l0,0
	c0-14.761,12.077-26.837,26.837-26.837h227.257c14.761,0,26.837,12.077,26.837,26.837l0,0
	C396.466,485.56,384.388,497.637,369.628,497.637z"/>
<path style="fill:#FFC61B;" d="M369.629,512H142.371c-22.718,0-41.201-18.482-41.201-41.201s18.482-41.202,41.201-41.202h227.258
	c22.718,0,41.201,18.482,41.201,41.202C410.83,493.518,392.347,512,369.629,512z M142.371,458.327
	c-6.878,0-12.472,5.596-12.472,12.474c0,6.878,5.595,12.472,12.472,12.472h227.258c6.878,0,12.472-5.595,12.472-12.472
	s-5.595-12.474-12.472-12.474H142.371z"/>
<g>
</g>
<g>
</g>
<g>
</g>
<g>
</g>
<g>
</g>
<g>
</g>
<g>
</g>
<g>
</g>
<g>
</g>
<g>
</g>
<g>
</g>
<g>
</g>
<g>
</g>
<g>
</g>
<g>
</g>
</svg>
