<svg width="72" height="72" viewBox="0 0 71 72" fill="none" xmlns="http://www.w3.org/2000/svg">
    <path d="M48.9323 9.63513V23.0676H62.3647V9.63513H48.9323ZM35.4999 36.5H48.9323V23.0676H35.4999V36.5Z" fill="#10B981"/>
    <path d="M48.9323 9.63513V23.0676H62.3647V9.63513H48.9323ZM35.4999 36.5H48.9323V23.0676H35.4999V36.5Z" fill="#10B981"/>
    <path d="M22.0674 36.5V49.9324H35.4999V36.5H22.0674ZM8.63501 63.3649H22.0674V49.9324H8.63501V63.3649Z" fill="#10B981"/>
    <path d="M22.0674 36.5V49.9324H35.4999V36.5H22.0674ZM8.63501 63.3649H22.0674V49.9324H8.63501V63.3649Z" fill="#10B981"/>
    <path d="M48.9323 36.5V49.9324H62.3647V36.5H48.9323ZM35.4999 63.3649H48.9323V49.9324H35.4999V63.3649Z" fill="#10B981"/>
    <path d="M48.9323 36.5V49.9324H62.3647V36.5H48.9323ZM35.4999 63.3649H48.9323V49.9324H35.4999V63.3649Z" fill="#10B981"/>
    <path d="M22.0674 9.63513V23.0676H35.4999V9.63513H22.0674ZM8.63501 36.5H22.0674V23.0676H8.63501V36.5Z" fill="#10B981"/>
    <path d="M22.0674 9.63513V23.0676H35.4999V9.63513H22.0674ZM8.63501 36.5H22.0674V23.0676H8.63501V36.5Z" fill="#10B981"/>
    <path d="M66.5625 1.00006H4.4375C3.2606 1.00006 2.13191 1.46758 1.29971 2.29977C0.467521 3.13197 0 4.26066 0 5.43756L0 67.5626C0 68.7395 0.467521 69.8682 1.29971 70.7004C2.13191 71.5325 3.2606 72.0001 4.4375 72.0001H66.5625C67.7394 72.0001 68.8681 71.5325 69.7003 70.7004C70.5325 69.8682 71 68.7395 71 67.5626V5.43756C71 4.26066 70.5325 3.13197 69.7003 2.29977C68.8681 1.46758 67.7394 1.00006 66.5625 1.00006ZM62.1527 63.1251H8.90273V9.87506H62.1527V63.1251Z" fill="#4B5563"/>
</svg>
