<svg width="596" height="99" viewBox="0 0 596 99" fill="none" xmlns="http://www.w3.org/2000/svg">
    <path d="M109.814 12.1768C111.074 13.3923 112.636 14 114.5 14C116.364 14 117.901 13.3923 119.11 12.1768C120.37 10.9085 121 9.34959 121 7.5C121 5.65041 120.37 4.11788 119.11 2.90244C117.901 1.63415 116.364 1 114.5 1C112.636 1 111.074 1.63415 109.814 2.90244C108.605 4.11788 108 5.65041 108 7.5C108 9.34959 108.605 10.9085 109.814 12.1768Z" fill="#10B988"/>
    <path d="M154.976 71.904C149.856 71.904 145.248 70.784 141.152 68.544C137.056 66.24 133.824 63.008 131.456 58.848C129.152 54.688 128 49.888 128 44.448C128 39.008 129.184 34.208 131.552 30.048C133.984 25.888 137.28 22.688 141.44 20.448C145.6 18.144 150.24 16.992 155.36 16.992C160.48 16.992 165.12 18.144 169.28 20.448C173.44 22.688 176.704 25.888 179.072 30.048C181.504 34.208 182.72 39.008 182.72 44.448C182.72 49.888 181.472 54.688 178.976 58.848C176.544 63.008 173.216 66.24 168.992 68.544C164.832 70.784 160.16 71.904 154.976 71.904ZM154.976 60.192C157.408 60.192 159.68 59.616 161.792 58.464C163.968 57.248 165.696 55.456 166.976 53.088C168.256 50.72 168.896 47.84 168.896 44.448C168.896 39.392 167.552 35.52 164.864 32.832C162.24 30.08 159.008 28.704 155.168 28.704C151.328 28.704 148.096 30.08 145.472 32.832C142.912 35.52 141.632 39.392 141.632 44.448C141.632 49.504 142.88 53.408 145.376 56.16C147.936 58.848 151.136 60.192 154.976 60.192Z" fill="#4B5563"/>
    <path d="M189.123 44.448C189.123 38.944 190.243 34.144 192.483 30.048C194.723 25.888 197.827 22.688 201.795 20.448C205.763 18.144 210.307 16.992 215.427 16.992C222.019 16.992 227.459 18.656 231.747 21.984C236.099 25.248 239.011 29.856 240.483 35.808H225.987C225.219 33.504 223.907 31.712 222.051 30.432C220.259 29.088 218.019 28.416 215.331 28.416C211.491 28.416 208.451 29.824 206.211 32.64C203.971 35.392 202.851 39.328 202.851 44.448C202.851 49.504 203.971 53.44 206.211 56.256C208.451 59.008 211.491 60.384 215.331 60.384C220.771 60.384 224.323 57.952 225.987 53.088H240.483C239.011 58.848 236.099 63.424 231.747 66.816C227.395 70.208 221.955 71.904 215.427 71.904C210.307 71.904 205.763 70.784 201.795 68.544C197.827 66.24 194.723 63.04 192.483 58.944C190.243 54.784 189.123 49.952 189.123 44.448Z" fill="#4B5563"/>
    <path d="M265.977 28.896V54.624C265.977 56.416 266.393 57.728 267.225 58.56C268.121 59.328 269.593 59.712 271.641 59.712H277.881V71.04H269.433C258.105 71.04 252.441 65.536 252.441 54.528V28.896H246.105V17.856H252.441V4.704H265.977V17.856H277.881V28.896H265.977Z" fill="#4B5563"/>
    <path d="M284.091 44.256C284.091 38.88 285.147 34.112 287.259 29.952C289.435 25.792 292.347 22.592 295.995 20.352C299.707 18.112 303.835 16.992 308.379 16.992C312.347 16.992 315.803 17.792 318.747 19.392C321.755 20.992 324.155 23.008 325.947 25.44V17.856H339.483V71.04H325.947V63.264C324.219 65.76 321.82 67.84 318.747 69.504C315.74 71.104 312.252 71.904 308.284 71.904C303.804 71.904 299.707 70.752 295.995 68.448C292.347 66.144 289.435 62.912 287.259 58.752C285.147 54.528 284.091 49.696 284.091 44.256ZM325.947 44.448C325.947 41.184 325.307 38.4 324.027 36.096C322.747 33.728 321.02 31.936 318.844 30.72C316.668 29.44 314.331 28.8 311.835 28.8C309.339 28.8 307.035 29.408 304.923 30.624C302.811 31.84 301.083 33.632 299.74 36C298.46 38.304 297.819 41.056 297.819 44.256C297.819 47.456 298.46 50.272 299.74 52.704C301.083 55.072 302.811 56.896 304.923 58.176C307.099 59.456 309.403 60.096 311.835 60.096C314.331 60.096 316.668 59.488 318.844 58.272C321.02 56.992 322.747 55.2 324.027 52.896C325.307 50.528 325.947 47.712 325.947 44.448Z" fill="#4B5563"/>
    <path d="M349.154 44.256C349.154 38.88 350.21 34.112 352.322 29.952C354.498 25.792 357.442 22.592 361.154 20.352C364.866 18.112 368.994 16.992 373.538 16.992C376.994 16.992 380.29 17.76 383.426 19.296C386.562 20.768 389.058 22.752 390.914 25.248V0H404.546V71.04H390.914V63.168C389.25 65.792 386.914 67.904 383.906 69.504C380.898 71.104 377.41 71.904 373.442 71.904C368.962 71.904 364.866 70.752 361.154 68.448C357.442 66.144 354.498 62.912 352.322 58.752C350.21 54.528 349.154 49.696 349.154 44.256ZM391.01 44.448C391.01 41.184 390.37 38.4 389.09 36.096C387.81 33.728 386.082 31.936 383.906 30.72C381.73 29.44 379.394 28.8 376.898 28.8C374.402 28.8 372.098 29.408 369.986 30.624C367.874 31.84 366.146 33.632 364.802 36C363.522 38.304 362.882 41.056 362.882 44.256C362.882 47.456 363.522 50.272 364.802 52.704C366.146 55.072 367.874 56.896 369.986 58.176C372.162 59.456 374.466 60.096 376.898 60.096C379.394 60.096 381.73 59.488 383.906 58.272C386.082 56.992 387.81 55.2 389.09 52.896C390.37 50.528 391.01 47.712 391.01 44.448Z" fill="#4B5563"/>
    <path d="M94.689 0.960022V72H81.249V0.960022H94.689Z" fill="#10B988"/>
    <path d="M121.408 18.816V72H107.968V18.816H121.408Z" fill="#10B988"/>
    <path d="M418.06 72.672C415.628 72.672 413.612 71.936 412.012 70.464C410.476 68.928 409.708 67.04 409.708 64.8C409.708 62.56 410.476 60.704 412.012 59.232C413.612 57.696 415.628 56.928 418.06 56.928C420.428 56.928 422.38 57.696 423.916 59.232C425.452 60.704 426.22 62.56 426.22 64.8C426.22 67.04 425.452 68.928 423.916 70.464C422.38 71.936 420.428 72.672 418.06 72.672Z" fill="#10B988"/>
    <path d="M460.662 72.864C455.542 72.864 450.934 71.744 446.838 69.504C442.742 67.2 439.51 63.968 437.142 59.808C434.838 55.648 433.686 50.848 433.686 45.408C433.686 39.968 434.87 35.168 437.238 31.008C439.67 26.848 442.966 23.648 447.126 21.408C451.286 19.104 455.926 17.952 461.046 17.952C466.166 17.952 470.806 19.104 474.966 21.408C479.126 23.648 482.39 26.848 484.758 31.008C487.19 35.168 488.406 39.968 488.406 45.408C488.406 50.848 487.158 55.648 484.662 59.808C482.23 63.968 478.902 67.2 474.678 69.504C470.518 71.744 465.846 72.864 460.662 72.864ZM460.662 61.152C463.094 61.152 465.366 60.576 467.478 59.424C469.654 58.208 471.382 56.416 472.662 54.048C473.942 51.68 474.582 48.8 474.582 45.408C474.582 40.352 473.238 36.48 470.55 33.792C467.926 31.04 464.694 29.664 460.854 29.664C457.014 29.664 453.782 31.04 451.158 33.792C448.598 36.48 447.318 40.352 447.318 45.408C447.318 50.464 448.566 54.368 451.062 57.12C453.622 59.808 456.822 61.152 460.662 61.152Z" fill="#10B988"/>
    <path d="M511.705 27.072C513.433 24.256 515.673 22.048 518.425 20.448C521.241 18.848 524.441 18.048 528.025 18.048V32.16H524.473C520.249 32.16 517.049 33.152 514.873 35.136C512.761 37.12 511.705 40.576 511.705 45.504V72H498.265V18.816H511.705V27.072Z" fill="#10B988"/>
    <path d="M557.909 17.952C561.877 17.952 565.365 18.752 568.373 20.352C571.381 21.888 573.749 23.904 575.477 26.4V18.816H589.013V72.384C589.013 77.312 588.021 81.696 586.037 85.536C584.053 89.44 581.077 92.512 577.109 94.752C573.141 97.056 568.341 98.208 562.709 98.208C555.157 98.208 548.949 96.448 544.085 92.928C539.285 89.408 536.565 84.608 535.925 78.528H549.269C549.973 80.96 551.477 82.88 553.781 84.288C556.149 85.76 558.997 86.496 562.325 86.496C566.229 86.496 569.397 85.312 571.829 82.944C574.261 80.64 575.477 77.12 575.477 72.384V64.128C573.749 66.624 571.349 68.704 568.277 70.368C565.269 72.032 561.813 72.864 557.909 72.864C553.429 72.864 549.333 71.712 545.621 69.408C541.909 67.104 538.965 63.872 536.789 59.712C534.677 55.488 533.621 50.656 533.621 45.216C533.621 39.84 534.677 35.072 536.789 30.912C538.965 26.752 541.877 23.552 545.525 21.312C549.237 19.072 553.365 17.952 557.909 17.952ZM575.477 45.408C575.477 42.144 574.837 39.36 573.557 37.056C572.277 34.688 570.549 32.896 568.373 31.68C566.197 30.4 563.861 29.76 561.365 29.76C558.869 29.76 556.565 30.368 554.453 31.584C552.341 32.8 550.613 34.592 549.269 36.96C547.989 39.264 547.349 42.016 547.349 45.216C547.349 48.416 547.989 51.232 549.269 53.664C550.613 56.032 552.341 57.856 554.453 59.136C556.629 60.416 558.933 61.056 561.365 61.056C563.861 61.056 566.197 60.448 568.373 59.232C570.549 57.952 572.277 56.16 573.557 53.856C574.837 51.488 575.477 48.672 575.477 45.408Z" fill="#10B988"/>
    <path d="M48.9325 9.63513V23.0676H62.365V9.63513H48.9325ZM35.5001 36.5H48.9325V23.0676H35.5001V36.5Z" fill="#10B988"/>
    <path d="M48.9325 9.63513V23.0676H62.365V9.63513H48.9325ZM35.5001 36.5H48.9325V23.0676H35.5001V36.5Z" fill="#10B988"/>
    <path d="M22.0677 36.5V49.9324H35.5001V36.5H22.0677ZM8.63525 63.3649H22.0677V49.9324H8.63525V63.3649Z" fill="#10B988"/>
    <path d="M22.0677 36.5V49.9324H35.5001V36.5H22.0677ZM8.63525 63.3649H22.0677V49.9324H8.63525V63.3649Z" fill="#10B988"/>
    <path d="M48.9325 36.5V49.9324H62.365V36.5H48.9325ZM35.5001 63.3649H48.9325V49.9324H35.5001V63.3649Z" fill="#10B988"/>
    <path d="M48.9325 36.5V49.9324H62.365V36.5H48.9325ZM35.5001 63.3649H48.9325V49.9324H35.5001V63.3649Z" fill="#10B988"/>
    <path d="M22.0677 9.63513V23.0676H35.5001V9.63513H22.0677ZM8.63525 36.5H22.0677V23.0676H8.63525V36.5Z" fill="#10B988"/>
    <path d="M22.0677 9.63513V23.0676H35.5001V9.63513H22.0677ZM8.63525 36.5H22.0677V23.0676H8.63525V36.5Z" fill="#10B988"/>
    <path d="M66.5625 1H4.4375C3.2606 1 2.13191 1.46752 1.29971 2.29971C0.467521 3.13191 0 4.2606 0 5.4375L0 67.5625C0 68.7394 0.467521 69.8681 1.29971 70.7003C2.13191 71.5325 3.2606 72 4.4375 72H66.5625C67.7394 72 68.8681 71.5325 69.7003 70.7003C70.5325 69.8681 71 68.7394 71 67.5625V5.4375C71 4.2606 70.5325 3.13191 69.7003 2.29971C68.8681 1.46752 67.7394 1 66.5625 1ZM62.1527 63.125H8.90273V9.875H62.1527V63.125Z" fill="#4B5563"/>
</svg>
