<?xml version="1.0"?>
<svg width="180" height="180"
     xmlns="http://www.w3.org/2000/svg">
<rect x="0" y="0" width="180" height="180" />
<rect x="0" y="135" width="45" height="45" style="fill: #93af6c" />
<svg xmlns="http://www.w3.org/2000/svg" version="1.1" width="360" height="360" viewBox="0 -135 360 360">
  <g style="opacity:1; fill:none; fill-opacity:1; fill-rule:evenodd; stroke:#000000; stroke-width:1.5; stroke-linecap:round;stroke-linejoin:round;stroke-miterlimit:4; stroke-dasharray:none; stroke-opacity:1;">
    <path
      d="M 22,10 C 32.5,11 38.5,18 38,39 L 15,39 C 15,30 25,32.5 23,18"
      style="fill:#ffffff; stroke:#000000;" />
    <path
      d="M 24,18 C 24.38,20.91 18.45,25.37 16,27 C 13,29 13.18,31.34 11,31 C 9.958,30.06 12.41,27.96 11,28 C 10,28 11.19,29.23 10,30 C 9,30 5.997,31 6,26 C 6,24 12,14 12,14 C 12,14 13.89,12.1 14,10.5 C 13.27,9.506 13.5,8.5 13.5,7.5 C 14.5,6.5 16.5,10 16.5,10 L 18.5,10 C 18.5,10 19.28,8.008 21,7 C 22,7 22,10 22,10"
      style="fill:#ffffff; stroke:#000000;" />
    <path
      d="M 9.5 25.5 A 0.5 0.5 0 1 1 8.5,25.5 A 0.5 0.5 0 1 1 9.5 25.5 z"
      style="fill:#000000; stroke:#000000;" />
    <path
      d="M 15 15.5 A 0.5 1.5 0 1 1  14,15.5 A 0.5 1.5 0 1 1  15 15.5 z"
      transform="matrix(0.866,0.5,-0.5,0.866,9.693,-5.173)"
      style="fill:#000000; stroke:#000000;" />
  </g>
</svg>
<text x="1" y="144" style="font-size:9px;fill: #ffffdf" >1</text>
<text x="44" y="179" style="text-anchor:end;font-size:9px;fill: #ffffdf" >a</text>
<rect x="45" y="135" width="45" height="45" style="fill: #ffffdf" />
<svg xmlns="http://www.w3.org/2000/svg" version="1.1" width="360" height="360" viewBox="-45 -135 360 360">
  <g style="fill:none; fill-opacity:1; fill-rule:evenodd; stroke:#000000; stroke-width:1.5; stroke-linecap:round;stroke-linejoin:round;stroke-miterlimit:4; stroke-dasharray:none; stroke-opacity:1;">
    <path
      d="M 22.5,11.63 L 22.5,6"
      style="fill:none; stroke:#000000; stroke-linejoin:miter;" />
    <path
      d="M 20,8 L 25,8"
      style="fill:none; stroke:#000000; stroke-linejoin:miter;" />
    <path
      d="M 22.5,25 C 22.5,25 27,17.5 25.5,14.5 C 25.5,14.5 24.5,12 22.5,12 C 20.5,12 19.5,14.5 19.5,14.5 C 18,17.5 22.5,25 22.5,25"
      style="fill:#ffffff; stroke:#000000; stroke-linecap:butt; stroke-linejoin:miter;" />
    <path
      d="M 11.5,37 C 17,40.5 27,40.5 32.5,37 L 32.5,30 C 32.5,30 41.5,25.5 38.5,19.5 C 34.5,13 25,16 22.5,23.5 L 22.5,27 L 22.5,23.5 C 19,16 9.5,13 6.5,19.5 C 3.5,25.5 11.5,29.5 11.5,29.5 L 11.5,37 z "
      style="fill:#ffffff; stroke:#000000;" />
    <path
      d="M 11.5,30 C 17,27 27,27 32.5,30"
      style="fill:none; stroke:#000000;" />
    <path
      d="M 11.5,33.5 C 17,30.5 27,30.5 32.5,33.5"
      style="fill:none; stroke:#000000;" />
    <path
      d="M 11.5,37 C 17,34 27,34 32.5,37"
      style="fill:none; stroke:#000000;" />
  </g>
</svg>
<text x="89" y="179" style="text-anchor:end;font-size:9px;fill: #93af6c" >b</text>
<rect x="90" y="135" width="45" height="45" style="fill: #93af6c" />
<text x="134" y="179" style="text-anchor:end;font-size:9px;fill: #ffffdf" >c</text>
<rect x="135" y="135" width="45" height="45" style="fill: #ffffdf" />
<svg xmlns="http://www.w3.org/2000/svg" version="1.1" width="360" height="360" viewBox="-135 -135 360 360">
  <path
    d="M 22,9 C 19.79,9 18,10.79 18,13 C 18,13.89 18.29,14.71 18.78,15.38 C 16.83,16.5 15.5,18.59 15.5,21 C 15.5,23.03 16.44,24.84 17.91,26.03 C 14.91,27.09 10.5,31.58 10.5,39.5 L 33.5,39.5 C 33.5,31.58 29.09,27.09 26.09,26.03 C 27.56,24.84 28.5,23.03 28.5,21 C 28.5,18.59 27.17,16.5 25.22,15.38 C 25.71,14.71 26,13.89 26,13 C 26,10.79 24.21,9 22,9 z "
    style="opacity:1; fill:#ffffff; fill-opacity:1; fill-rule:nonzero; stroke:#000000; stroke-width:1.5; stroke-linecap:round; stroke-linejoin:miter; stroke-miterlimit:4; stroke-dasharray:none; stroke-opacity:1;" />
</svg>
<text x="179" y="179" style="text-anchor:end;font-size:9px;fill: #93af6c" >d</text>
<rect x="0" y="90" width="45" height="45" style="fill: #ffffdf" />
<text x="1" y="99" style="font-size:9px;fill: #93af6c" >2</text>
<rect x="45" y="90" width="45" height="45" style="fill: #93af6c" />
<rect x="90" y="90" width="45" height="45" style="fill: #ffffdf" />
<svg xmlns="http://www.w3.org/2000/svg" version="1.1" width="360" height="360" viewBox="-90 -90 360 360">
  <path
    d="M 22,9 C 19.79,9 18,10.79 18,13 C 18,13.89 18.29,14.71 18.78,15.38 C 16.83,16.5 15.5,18.59 15.5,21 C 15.5,23.03 16.44,24.84 17.91,26.03 C 14.91,27.09 10.5,31.58 10.5,39.5 L 33.5,39.5 C 33.5,31.58 29.09,27.09 26.09,26.03 C 27.56,24.84 28.5,23.03 28.5,21 C 28.5,18.59 27.17,16.5 25.22,15.38 C 25.71,14.71 26,13.89 26,13 C 26,10.79 24.21,9 22,9 z "
    style="opacity:1; fill:#ffffff; fill-opacity:1; fill-rule:nonzero; stroke:#000000; stroke-width:1.5; stroke-linecap:round; stroke-linejoin:miter; stroke-miterlimit:4; stroke-dasharray:none; stroke-opacity:1;" />
</svg>
<rect x="135" y="90" width="45" height="45" style="fill: #93af6c" />
<rect x="0" y="45" width="45" height="45" style="fill: #93af6c" />
<text x="1" y="54" style="font-size:9px;fill: #ffffdf" >3</text>
<rect x="45" y="45" width="45" height="45" style="fill: #ffffdf" />
<rect x="45" y="45" width="45" height="45" style="fill-opacity:0.2;fill: #0040ff" />
<svg xmlns="http://www.w3.org/2000/svg" version="1.1" width="360" height="360" viewBox="-45 -45 360 360">
  <path
    d="M 22,9 C 19.79,9 18,10.79 18,13 C 18,13.89 18.29,14.71 18.78,15.38 C 16.83,16.5 15.5,18.59 15.5,21 C 15.5,23.03 16.44,24.84 17.91,26.03 C 14.91,27.09 10.5,31.58 10.5,39.5 L 33.5,39.5 C 33.5,31.58 29.09,27.09 26.09,26.03 C 27.56,24.84 28.5,23.03 28.5,21 C 28.5,18.59 27.17,16.5 25.22,15.38 C 25.71,14.71 26,13.89 26,13 C 26,10.79 24.21,9 22,9 z "
    style="opacity:1; fill:#000000; fill-opacity:1; fill-rule:nonzero; stroke:#000000; stroke-width:1.5; stroke-linecap:round; stroke-linejoin:miter; stroke-miterlimit:4; stroke-dasharray:none; stroke-opacity:1;" />
</svg>
<rect x="90" y="45" width="45" height="45" style="fill: #93af6c" />
<rect x="135" y="45" width="45" height="45" style="fill: #ffffdf" />
<rect x="0" y="0" width="45" height="45" style="fill: #ffffdf" />
<svg xmlns="http://www.w3.org/2000/svg" version="1.1" width="360" height="360" viewBox="0 0 360 360">
  <path
    d="M 22,9 C 19.79,9 18,10.79 18,13 C 18,13.89 18.29,14.71 18.78,15.38 C 16.83,16.5 15.5,18.59 15.5,21 C 15.5,23.03 16.44,24.84 17.91,26.03 C 14.91,27.09 10.5,31.58 10.5,39.5 L 33.5,39.5 C 33.5,31.58 29.09,27.09 26.09,26.03 C 27.56,24.84 28.5,23.03 28.5,21 C 28.5,18.59 27.17,16.5 25.22,15.38 C 25.71,14.71 26,13.89 26,13 C 26,10.79 24.21,9 22,9 z "
    style="opacity:1; fill:#000000; fill-opacity:1; fill-rule:nonzero; stroke:#000000; stroke-width:1.5; stroke-linecap:round; stroke-linejoin:miter; stroke-miterlimit:4; stroke-dasharray:none; stroke-opacity:1;" />
</svg>
<text x="1" y="9" style="font-size:9px;fill: #93af6c" >4</text>
<rect x="45" y="0" width="45" height="45" style="fill: #93af6c" />
<rect x="45" y="0" width="45" height="45" style="fill-opacity:0.2;fill: #0040ff" />
<rect x="90" y="0" width="45" height="45" style="fill: #ffffdf" />
<svg xmlns="http://www.w3.org/2000/svg" version="1.1" width="360" height="360" viewBox="-90 0 360 360">
  <g style="fill:none; fill-opacity:1; fill-rule:evenodd; stroke:#000000; stroke-width:1.5; stroke-linecap:round;stroke-linejoin:round;stroke-miterlimit:4; stroke-dasharray:none; stroke-opacity:1;">
    <path
       d="M 22.5,11.63 L 22.5,6"
       style="fill:none; stroke:#000000; stroke-linejoin:miter;"
       id="path6570" />
    <path
       d="M 22.5,25 C 22.5,25 27,17.5 25.5,14.5 C 25.5,14.5 24.5,12 22.5,12 C 20.5,12 19.5,14.5 19.5,14.5 C 18,17.5 22.5,25 22.5,25"
       style="fill:#000000;fill-opacity:1; stroke-linecap:butt; stroke-linejoin:miter;" />
    <path
       d="M 11.5,37 C 17,40.5 27,40.5 32.5,37 L 32.5,30 C 32.5,30 41.5,25.5 38.5,19.5 C 34.5,13 25,16 22.5,23.5 L 22.5,27 L 22.5,23.5 C 19,16 9.5,13 6.5,19.5 C 3.5,25.5 11.5,29.5 11.5,29.5 L 11.5,37 z "
       style="fill:#000000; stroke:#000000;" />
    <path
       d="M 20,8 L 25,8"
       style="fill:none; stroke:#000000; stroke-linejoin:miter;" />
    <path
       d="M 32,29.5 C 32,29.5 40.5,25.5 38.03,19.85 C 34.15,14 25,18 22.5,24.5 L 22.51,26.6 L 22.5,24.5 C 20,18 9.906,14 6.997,19.85 C 4.5,25.5 11.85,28.85 11.85,28.85"
       style="fill:none; stroke:#ffffff;" />
    <path
       d="M 11.5,30 C 17,27 27,27 32.5,30 M 11.5,33.5 C 17,30.5 27,30.5 32.5,33.5 M 11.5,37 C 17,34 27,34 32.5,37"
       style="fill:none; stroke:#ffffff;" />
  </g>
</svg>
<rect x="135" y="0" width="45" height="45" style="fill: #93af6c" />
<svg xmlns="http://www.w3.org/2000/svg" version="1.1" width="360" height="360" viewBox="-135 0 360 360">
  <g style="opacity:1; fill:none; fill-opacity:1; fill-rule:evenodd; stroke:#000000; stroke-width:1.5; stroke-linecap:round;stroke-linejoin:round;stroke-miterlimit:4; stroke-dasharray:none; stroke-opacity:1;">
    <path
      d="M 22,10 C 32.5,11 38.5,18 38,39 L 15,39 C 15,30 25,32.5 23,18"
      style="fill:#000000; stroke:#000000;" />
    <path
      d="M 24,18 C 24.38,20.91 18.45,25.37 16,27 C 13,29 13.18,31.34 11,31 C 9.958,30.06 12.41,27.96 11,28 C 10,28 11.19,29.23 10,30 C 9,30 5.997,31 6,26 C 6,24 12,14 12,14 C 12,14 13.89,12.1 14,10.5 C 13.27,9.506 13.5,8.5 13.5,7.5 C 14.5,6.5 16.5,10 16.5,10 L 18.5,10 C 18.5,10 19.28,8.008 21,7 C 22,7 22,10 22,10"
      style="fill:#000000; stroke:#000000;" />
    <path
      d="M 9.5 25.5 A 0.5 0.5 0 1 1 8.5,25.5 A 0.5 0.5 0 1 1 9.5 25.5 z"
      style="fill:#ffffff; stroke:#ffffff;" />
    <path
      d="M 15 15.5 A 0.5 1.5 0 1 1  14,15.5 A 0.5 1.5 0 1 1  15 15.5 z"
      transform="matrix(0.866,0.5,-0.5,0.866,9.693,-5.173)"
      style="fill:#ffffff; stroke:#ffffff;" />
    <path
      d="M 24.55,10.4 L 24.1,11.85 L 24.6,12 C 27.75,13 30.25,14.49 32.5,18.75 C 34.75,23.01 35.75,29.06 35.25,39 L 35.2,39.5 L 37.45,39.5 L 37.5,39 C 38,28.94 36.62,22.15 34.25,17.66 C 31.88,13.17 28.46,11.02 25.06,10.5 L 24.55,10.4 z "
      style="fill:#ffffff; stroke:none;" />
  </g>
</svg>
</svg>
